<svg width="211" height="44" viewBox="0 0 211 44" fill="none" xmlns="http://www.w3.org/2000/svg">
<g clip-path="url(#clip0_457_915)">
<path d="M25.6668 27.5001H18.3334C17.2842 27.5001 16.3425 28.0838 15.8734 29.0219C15.4044 29.9583 15.5046 31.063 16.133 31.8991L19.7997 36.7904C20.3243 37.4886 21.1264 37.8897 22.0001 37.8897C22.8738 37.8897 23.6759 37.4886 24.2005 36.7886L27.8671 31.9008C28.4956 31.063 28.5958 29.9583 28.1267 29.0219C27.6577 28.0838 26.7159 27.5001 25.6668 27.5001Z" fill="white"/>
<path d="M41.8661 17.6835C41.3792 16.3988 40.7747 15.1014 40.0737 13.8283C42.4242 12.5939 44.0002 10.1305 44.0002 7.33336C44.0002 3.28892 40.7113 0 36.6668 0C34.0259 0 31.5736 1.54184 30.2436 3.82032C27.813 2.58116 25.0662 1.83334 22.0001 1.83334C18.934 1.83334 16.1873 2.58127 13.7565 3.82032C12.4265 1.54184 9.97427 0 7.33336 0C3.28892 0 0 3.28892 0 7.33336C0 10.1301 1.57554 12.5935 3.92562 13.8279C3.22424 15.1012 2.61953 16.3987 2.13234 17.6835C0.0752037 23.1173 -1.53077 30.8195 2.50832 36.6686C5.86706 41.5331 12.4252 44.0002 22.0001 44.0002C31.575 44.0002 38.1331 41.5331 41.4919 36.6686C45.5309 30.8195 43.9232 23.1173 41.8661 17.6835ZM38.4751 34.5846C35.8414 38.3999 30.2985 40.3335 22.0001 40.3335C13.7017 40.3335 8.15873 38.3999 5.52508 34.5846C2.39014 30.046 3.81527 23.5953 5.56089 18.9833C6.4149 16.731 11.2203 5.50002 22.0001 5.50002C32.7799 5.50002 37.5853 16.731 38.4393 18.9833C40.1849 23.5953 41.61 30.046 38.4751 34.5846Z" fill="white"/>
<path d="M17.671 22.6965C19.3253 20.344 19.4685 19.4076 19.0549 17.7891C18.2707 14.7186 16.3157 14.0741 14.8153 14.0741C11.0878 14.0741 8.1802 19.105 8.1444 21.6205C8.12291 23.1316 8.73343 24.7053 9.7414 25.7276C10.4486 26.4438 11.2793 26.8233 12.1459 26.8233C14.4608 26.8234 16.2387 24.7376 17.671 22.6965Z" fill="white"/>
<path d="M29.1849 14.0741C27.6845 14.0741 25.7294 14.7186 24.9453 17.7891C24.5317 19.4076 24.6749 20.344 26.3292 22.6966C27.7615 24.7376 29.5394 26.8234 31.8543 26.8234C32.7208 26.8234 33.5516 26.4438 34.2588 25.7277C35.2667 24.7053 35.8773 23.1316 35.8558 21.6223C35.82 19.1051 32.9124 14.0741 29.1849 14.0741Z" fill="white"/>
</g>
<path d="M88.7999 8.56015V36.64H81.9599V19.8001L75.6799 36.64H70.1599L63.84 19.7601V36.64H57V8.56015H65.08L72.9599 28.0001L80.7599 8.56015H88.7999Z" fill="white"/>
<path d="M113.359 14.3201V36.64H106.519V33.6C105.825 34.5867 104.879 35.3867 103.679 36C102.505 36.5867 101.199 36.88 99.7586 36.88C98.0519 36.88 96.5452 36.5067 95.2386 35.76C93.9319 34.9867 92.9186 33.88 92.1986 32.44C91.4786 31.0001 91.1186 29.3067 91.1186 27.3601V14.3201H97.9186V26.4401C97.9186 27.9334 98.3052 29.0934 99.0786 29.9201C99.8519 30.7467 100.892 31.1601 102.199 31.1601C103.532 31.1601 104.585 30.7467 105.359 29.9201C106.132 29.0934 106.519 27.9334 106.519 26.4401V14.3201H113.359Z" fill="white"/>
<path d="M144.351 14.0801C147.125 14.0801 149.325 14.9201 150.951 16.6001C152.605 18.2801 153.431 20.6134 153.431 23.6001V36.64H146.631V24.5201C146.631 23.0801 146.245 21.9734 145.471 21.2001C144.725 20.4001 143.685 20.0001 142.351 20.0001C141.018 20.0001 139.965 20.4001 139.192 21.2001C138.445 21.9734 138.072 23.0801 138.072 24.5201V36.64H131.272V24.5201C131.272 23.0801 130.885 21.9734 130.112 21.2001C129.365 20.4001 128.325 20.0001 126.992 20.0001C125.658 20.0001 124.605 20.4001 123.832 21.2001C123.085 21.9734 122.712 23.0801 122.712 24.5201V36.64H115.872V14.3201H122.712V17.1201C123.405 16.1868 124.312 15.4535 125.432 14.9201C126.552 14.3601 127.818 14.0801 129.232 14.0801C130.912 14.0801 132.405 14.4401 133.712 15.1601C135.045 15.8801 136.085 16.9068 136.832 18.2401C137.605 17.0134 138.658 16.0135 139.992 15.2401C141.325 14.4668 142.778 14.0801 144.351 14.0801Z" fill="white"/>
<path d="M162.655 17.4801C163.295 16.4401 164.215 15.6001 165.415 14.9601C166.615 14.3201 167.988 14.0001 169.535 14.0001C171.375 14.0001 173.042 14.4668 174.535 15.4001C176.028 16.3335 177.202 17.6668 178.055 19.4001C178.935 21.1334 179.375 23.1468 179.375 25.4401C179.375 27.7334 178.935 29.7601 178.055 31.5201C177.202 33.2534 176.028 34.6 174.535 35.56C173.042 36.4934 171.375 36.96 169.535 36.96C167.962 36.96 166.588 36.6534 165.415 36.04C164.242 35.4 163.322 34.56 162.655 33.52V36.64H155.815V7.04016H162.655V17.4801ZM172.415 25.4401C172.415 23.7334 171.935 22.4001 170.975 21.4401C170.042 20.4534 168.882 19.9601 167.495 19.9601C166.135 19.9601 164.975 20.4534 164.015 21.4401C163.082 22.4268 162.615 23.7734 162.615 25.4801C162.615 27.1867 163.082 28.5334 164.015 29.5201C164.975 30.5067 166.135 31.0001 167.495 31.0001C168.855 31.0001 170.015 30.5067 170.975 29.5201C171.935 28.5067 172.415 27.1467 172.415 25.4401Z" fill="white"/>
<path d="M187.403 7.04016V36.64H180.564V7.04016H187.403Z" fill="white"/>
<path d="M211 25.1201C211 25.7601 210.96 26.4267 210.88 27.1201H195.4C195.507 28.5067 195.947 29.5734 196.72 30.3201C197.52 31.0401 198.494 31.4001 199.64 31.4001C201.347 31.4001 202.534 30.6801 203.2 29.2401H210.48C210.107 30.7067 209.427 32.0267 208.44 33.2C207.48 34.3734 206.267 35.2934 204.8 35.96C203.334 36.6267 201.694 36.96 199.88 36.96C197.694 36.96 195.747 36.4934 194.04 35.56C192.334 34.6267 191 33.2934 190.04 31.5601C189.08 29.8267 188.6 27.8001 188.6 25.4801C188.6 23.1601 189.067 21.1334 190 19.4001C190.96 17.6668 192.294 16.3335 194 15.4001C195.707 14.4668 197.667 14.0001 199.88 14.0001C202.04 14.0001 203.96 14.4535 205.64 15.3601C207.32 16.2668 208.627 17.5601 209.56 19.2401C210.52 20.9201 211 22.8801 211 25.1201ZM204 23.3201C204 22.1468 203.6 21.2134 202.8 20.5201C202 19.8268 201 19.4801 199.8 19.4801C198.654 19.4801 197.68 19.8134 196.88 20.4801C196.107 21.1468 195.627 22.0934 195.44 23.3201H204Z" fill="white"/>
<defs>
<clipPath id="clip0_457_915">
<rect width="44.0002" height="44.0002" fill="white"/>
</clipPath>
</defs>
</svg>
