<svg width="72" height="68" viewBox="0 0 72 68" fill="none" xmlns="http://www.w3.org/2000/svg">
<rect x="0.5" y="0.5" width="71" height="67" rx="4.5" stroke="#9747FF" stroke-dasharray="10 5"/>
<g clip-path="url(#clip0_426_316)">
<path d="M26.625 19.2189C26.4779 19.1011 26.3005 19.0273 26.1133 19.006C25.9261 18.9846 25.7367 19.0166 25.5668 19.0982C25.397 19.1798 25.2537 19.3078 25.1534 19.4673C25.0531 19.6268 24.9999 19.8115 25 19.9999V22.9999H17C16.7348 22.9999 16.4804 23.1052 16.2929 23.2928C16.1054 23.4803 16 23.7347 16 23.9999C16 24.2651 16.1054 24.5195 16.2929 24.707C16.4804 24.8945 16.7348 24.9999 17 24.9999H25V27.9999C24.9999 28.1883 25.0531 28.3729 25.1534 28.5325C25.2537 28.692 25.397 28.8199 25.5668 28.9016C25.7367 28.9832 25.9261 29.0152 26.1133 28.9938C26.3005 28.9725 26.4779 28.8987 26.625 28.7809L31.625 24.7809C31.7422 24.6872 31.8367 24.5684 31.9017 24.4332C31.9667 24.298 32.0005 24.1499 32.0005 23.9999C32.0005 23.8499 31.9667 23.7018 31.9017 23.5666C31.8367 23.4314 31.7422 23.3126 31.625 23.2189L26.625 19.2189Z" fill="#475569"/>
</g>
<g clip-path="url(#clip1_426_316)">
<path d="M25.7814 36.3751C25.6841 36.2635 25.5641 36.1741 25.4294 36.1128C25.2947 36.0515 25.1484 36.0198 25.0004 36.0198C24.8524 36.0198 24.7061 36.0515 24.5714 36.1128C24.4366 36.1741 24.3166 36.2635 24.2194 36.3751L20.2194 41.3751C20.1016 41.5222 20.0278 41.6996 20.0064 41.8868C19.9851 42.074 20.0171 42.2634 20.0987 42.4333C20.1803 42.6031 20.3083 42.7464 20.4678 42.8467C20.6273 42.947 20.8119 43.0002 21.0004 43.0001H24.0004V51.0001C24.0004 51.2653 24.1057 51.5197 24.2933 51.7072C24.4808 51.8947 24.7352 52.0001 25.0004 52.0001C25.2656 52.0001 25.5199 51.8947 25.7075 51.7072C25.895 51.5197 26.0004 51.2653 26.0004 51.0001V43.0001H29.0004C29.1888 43.0002 29.3734 42.947 29.533 42.8467C29.6925 42.7464 29.8204 42.6031 29.9021 42.4333C29.9837 42.2634 30.0157 42.074 29.9943 41.8868C29.973 41.6996 29.8991 41.5222 29.7814 41.3751L25.7814 36.3751Z" fill="#475569"/>
</g>
<g clip-path="url(#clip2_426_316)">
<path d="M55.0005 42.9999H47.0005V39.9999C47.0005 39.8115 46.9474 39.6268 46.8471 39.4673C46.7468 39.3078 46.6035 39.1798 46.4337 39.0982C46.2638 39.0166 46.0744 38.9846 45.8872 39.006C45.6999 39.0273 45.5226 39.1011 45.3755 39.2189L40.3755 43.2189C40.2583 43.3126 40.1637 43.4314 40.0987 43.5666C40.0337 43.7018 40 43.8499 40 43.9999C40 44.1499 40.0337 44.298 40.0987 44.4332C40.1637 44.5684 40.2583 44.6872 40.3755 44.7809L45.3755 48.7809C45.5226 48.8987 45.6999 48.9725 45.8872 48.9938C46.0744 49.0152 46.2638 48.9832 46.4337 48.9016C46.6035 48.8199 46.7468 48.692 46.8471 48.5325C46.9474 48.3729 47.0005 48.1883 47.0005 47.9999V44.9999H55.0005C55.2657 44.9999 55.52 44.8945 55.7076 44.707C55.8951 44.5195 56.0005 44.2651 56.0005 43.9999C56.0005 43.7347 55.8951 43.4803 55.7076 43.2928C55.52 43.1052 55.2657 42.9999 55.0005 42.9999Z" fill="#475569"/>
</g>
<g clip-path="url(#clip3_426_316)">
<path d="M52.0004 25H49.0004V17C49.0004 16.7348 48.895 16.4804 48.7075 16.2929C48.5199 16.1054 48.2656 16 48.0004 16C47.7352 16 47.4808 16.1054 47.2933 16.2929C47.1057 16.4804 47.0004 16.7348 47.0004 17V25H44.0004C43.8119 24.9999 43.6273 25.0531 43.4678 25.1534C43.3083 25.2537 43.1803 25.397 43.0987 25.5668C43.0171 25.7367 42.9851 25.9261 43.0064 26.1133C43.0278 26.3005 43.1016 26.4779 43.2194 26.625L47.2194 31.625C47.3131 31.7422 47.4319 31.8367 47.5671 31.9017C47.7023 31.9667 47.8504 32.0005 48.0004 32.0005C48.1504 32.0005 48.2985 31.9667 48.4337 31.9017C48.5689 31.8367 48.6877 31.7422 48.7814 31.625L52.7814 26.625C52.8991 26.4779 52.973 26.3005 52.9943 26.1133C53.0157 25.9261 52.9837 25.7367 52.9021 25.5668C52.8204 25.397 52.6925 25.2537 52.533 25.1534C52.3734 25.0531 52.1888 24.9999 52.0004 25Z" fill="#475569"/>
</g>
<defs>
<clipPath id="clip0_426_316">
<rect width="16" height="16" fill="white" transform="translate(16 16)"/>
</clipPath>
<clipPath id="clip1_426_316">
<rect width="16" height="16" fill="white" transform="translate(17 36)"/>
</clipPath>
<clipPath id="clip2_426_316">
<rect width="16" height="16" fill="white" transform="translate(40 36)"/>
</clipPath>
<clipPath id="clip3_426_316">
<rect width="16" height="16" fill="white" transform="translate(40 16)"/>
</clipPath>
</defs>
</svg>
