<svg width="68" height="48" viewBox="0 0 68 48" fill="none" xmlns="http://www.w3.org/2000/svg">
<rect x="0.5" y="0.5" width="67" height="47" rx="4.5" stroke="#9747FF" stroke-dasharray="10 5"/>
<g clip-path="url(#clip0_413_281)">
<path d="M44 16C39.6 16 36 19.1 36 23C36 26.9 39.6 30 44 30C44.2 30 44.4 30 44.6 30L50 32V27.6C51.2 26.4 52 24.8 52 23C52 19.1 48.4 16 44 16ZM48 26.8V29.1L44.9 28C44.9 28 44.2 28 44 28C40.7 28 38 25.8 38 23C38 20.2 40.7 18 44 18C47.3 18 50 20.2 50 23C50 25.2 48 26.8 48 26.8Z" fill="#475569"/>
</g>
<g clip-path="url(#clip1_413_281)">
<path d="M24 16C19.6 16 16 19.1 16 23C16 26.9 19.6 30 24 30C24.4 30 24.8 30 25.1 29.9L30 32V27.6C31.2 26.4 32 24.8 32 23C32 19.1 28.4 16 24 16Z" fill="#475569"/>
</g>
<defs>
<clipPath id="clip0_413_281">
<rect width="16" height="16" fill="white" transform="translate(36 16)"/>
</clipPath>
<clipPath id="clip1_413_281">
<rect width="16" height="16" fill="white" transform="translate(16 16)"/>
</clipPath>
</defs>
</svg>
